<svg xmlns="http://www.w3.org/2000/svg" viewBox="0 0 1200 400" fill="none" role="img" aria-label="Do'kon muqovasi">
  <defs>
    <linearGradient id="bg" x1="0%" y1="0%" x2="100%" y2="100%">
      <stop offset="0%" stop-color="#0052cc"/>
      <stop offset="45%" stop-color="#3730a3"/>
      <stop offset="100%" stop-color="#ea580c"/>
    </linearGradient>
    <linearGradient id="shine" x1="0%" y1="0%" x2="0%" y2="100%">
      <stop offset="0%" stop-color="#ffffff" stop-opacity="0.22"/>
      <stop offset="100%" stop-color="#ffffff" stop-opacity="0"/>
    </linearGradient>
    <filter id="blur" x="-20%" y="-20%" width="140%" height="140%">
      <feGaussianBlur stdDeviation="24"/>
    </filter>
  </defs>
  <rect width="1200" height="400" fill="url(#bg)"/>
  <rect width="1200" height="400" fill="url(#shine)"/>
  <circle cx="980" cy="60" r="120" fill="#fff" fill-opacity="0.08" filter="url(#blur)"/>
  <circle cx="180" cy="320" r="90" fill="#ff4d12" fill-opacity="0.25" filter="url(#blur)"/>
  <path d="M0 280 Q300 220 600 260 T1200 240 L1200 400 L0 400 Z" fill="#000" fill-opacity="0.12"/>
  <g fill="#fff" fill-opacity="0.12">
    <rect x="80" y="72" width="48" height="48" rx="12"/>
    <rect x="144" y="88" width="200" height="16" rx="8"/>
    <rect x="144" y="112" width="140" height="12" rx="6"/>
  </g>
  <g stroke="#fff" stroke-opacity="0.2" stroke-width="1">
    <path d="M720 120h80M760 80v80"/>
    <circle cx="760" cy="120" r="56"/>
  </g>
  <text x="80" y="200" font-family="Outfit, system-ui, sans-serif" font-size="42" font-weight="700" fill="#ffffff">Do'kon vitrinasi</text>
  <text x="80" y="248" font-family="Outfit, system-ui, sans-serif" font-size="20" font-weight="500" fill="#ffffff" fill-opacity="0.85">Bozorliii  mijozlar sizni shu yerda topadi</text>
  <text x="80" y="340" font-family="Outfit, system-ui, sans-serif" font-size="14" font-weight="600" fill="#ffffff" fill-opacity="0.55">Muqova va logoni CRM profildan yuklang</text>
</svg>
