<svg xmlns="http://www.w3.org/2000/svg" viewBox="0 0 48 48" fill="none" role="img" aria-label="Bozorliii">
  <defs>
    <linearGradient id="bl-icon-grad" x1="6" y1="6" x2="42" y2="42" gradientUnits="userSpaceOnUse">
      <stop stop-color="#0066FF"/>
      <stop offset="0.55" stop-color="#7B3FE4"/>
      <stop offset="1" stop-color="#FF4D12"/>
    </linearGradient>
  </defs>
  <rect width="48" height="48" rx="14" fill="url(#bl-icon-grad)"/>
  <path fill="#fff" d="M10 22c0-6 4-10 14-10s14 4 14 10v2H10v-2z" opacity=".95"/>
  <path fill="#fff" d="M12 24h24v14c0 2-1.5 3-4 3H16c-2.5 0-4-1-4-3V24z"/>
  <path fill="#fff" d="M22 14l2.2 4.4 4.9.7-3.5 3.4.8 4.9-4.4-2.3-4.4 2.3.8-4.9-3.5-3.4 4.9-.7L22 14z"/>
</svg>
