<svg xmlns="http://www.w3.org/2000/svg" width="640" height="800" viewBox="0 0 640 800" role="img" aria-label="Topdim mahsulot">
  <defs>
    <linearGradient id="bg" x1="0" y1="0" x2="1" y2="1">
      <stop offset="0%" stop-color="#f2f4f8"/>
      <stop offset="100%" stop-color="#e8ecf4"/>
    </linearGradient>
    <linearGradient id="coat" x1="0" y1="0" x2="0" y2="1">
      <stop offset="0%" stop-color="#3388ff"/>
      <stop offset="100%" stop-color="#0066ff"/>
    </linearGradient>
    <linearGradient id="mark" x1="0" y1="0" x2="1" y2="1">
      <stop offset="0%" stop-color="#0066ff"/>
      <stop offset="100%" stop-color="#ff4d12"/>
    </linearGradient>
  </defs>
  <rect width="640" height="800" fill="url(#bg)"/>
  <circle cx="320" cy="168" r="52" fill="#d4e4ff"/>
  <path fill="url(#coat)" d="M220 230 L160 760 L480 760 L420 230 Q320 180 220 230 Z" opacity="0.88"/>
  <path fill="#0052cc" d="M280 230 L320 290 L360 230 Q320 250 280 230 Z"/>
  <g transform="translate(248 680)" opacity="0.55">
    <rect width="44" height="44" rx="12" fill="url(#mark)"/>
    <path fill="#fff" d="M14 12h16v4H22v8h-4v-8h-6V12z"/>
    <circle cx="22" cy="32" r="3.5" fill="#fff"/>
    <text x="52" y="30" font-family="Outfit,system-ui,sans-serif" font-size="22" font-weight="800" fill="#030308">topdim</text>
    <text x="128" y="30" font-family="Outfit,system-ui,sans-serif" font-size="22" font-weight="700" fill="#0066ff">.uz</text>
  </g>
</svg>
