<svg xmlns="http://www.w3.org/2000/svg" viewBox="0 0 32 32" fill="none">
  <defs>
    <linearGradient id="fav-grad" x1="2" y1="2" x2="30" y2="30" gradientUnits="userSpaceOnUse">
      <stop stop-color="#0066FF"/>
      <stop offset="0.55" stop-color="#7B3FE4"/>
      <stop offset="1" stop-color="#FF4D12"/>
    </linearGradient>
  </defs>
  <rect width="32" height="32" rx="9" fill="url(#fav-grad)"/>
  <path fill="#fff" d="M7 15c0-4 3-7 9-7s9 3 9 7v1H7v-1z"/>
  <path fill="#fff" d="M8 16h16v9c0 1.5-1.2 2.5-3 2.5h-10c-1.8 0-3-1-3-2.5V16z"/>
  <path fill="#fff" d="M14 10l1.4 2.8 3.1.5-2.2 2.1.5 3.1-2.8-1.5-2.8 1.5.5-3.1-2.2-2.1 3.1-.5L14 10z"/>
</svg>
